<svg width="61" height="61" viewBox="0 0 61 61" fill="none" xmlns="http://www.w3.org/2000/svg">
<path d="M30.457 60H33.0965L34.9487 53.5277C34.9487 53.5277 38.1438 52.8035 39.996 51.9888C41.8482 51.1741 43.6078 49.9974 43.6078 49.9974L49.2108 52.9846L53.2394 48.9564L50.3221 43.5703C50.3221 43.5703 51.7576 41.262 52.6374 39.2705C53.5172 37.3243 53.8877 35.0613 53.8877 35.0613L60 33.2509V27.7743L53.8877 25.9639C53.8877 25.9639 53.2857 23.7461 52.6374 21.8451C52.0355 19.9894 50.4148 17.4096 50.4148 17.4096L53.332 12.114L49.396 8.08583L43.8394 11.1183C43.8394 11.1183 41.663 9.6247 39.6255 8.71949C37.5881 7.81427 35.0413 7.40692 35.0413 7.40692C35.0413 7.40692 33.3743 1.52301 33.3743 1.16093C33.3743 0.798841 30.457 1.16093 30.457 1.16093" stroke="#B0CB1F" stroke-width="2" stroke-miterlimit="10"/>
<path d="M31.1556 1C14.5004 1 1 14.2069 1 30.5C1 46.7931 14.5004 60 31.1556 60" stroke="#401691" stroke-width="2" stroke-miterlimit="10"/>
<path d="M31.1558 48.1998C40.5951 48.1998 48.2002 40.2661 48.2002 30.523C48.2002 20.7799 40.5951 12.7998 31.1558 12.7998" stroke="#401691" stroke-width="2" stroke-miterlimit="10"/>
<path d="M31.1558 1V60" stroke="#401691" stroke-width="2" stroke-miterlimit="10"/>
<path d="M31.1553 15.4224H4.93311" stroke="#401691" stroke-width="2" stroke-miterlimit="10"/>
<path d="M31.1556 29.8442H1" stroke="#401691" stroke-width="2" stroke-miterlimit="10"/>
<path d="M31.1553 45.5776H4.93311" stroke="#401691" stroke-width="2" stroke-miterlimit="10"/>
<path d="M31.4999 1C16.9999 14 13.9999 43 29.9999 60" stroke="#401691" stroke-width="2"/>
</svg>
