<svg width="61" height="69" viewBox="0 0 61 69" fill="none" xmlns="http://www.w3.org/2000/svg">
<path d="M27.6016 20H32.3984V23.6905C32.3984 24.0476 32.6759 24.3651 33.0327 24.4444C35.1338 24.8413 37.116 25.6746 38.8999 26.8651C39.217 27.0635 39.6135 27.0238 39.8513 26.7857L42.4678 24.2063L45.8375 27.5794L43.221 30.1587C42.9435 30.4365 42.9039 30.8333 43.1417 31.1111C44.331 32.8968 45.1635 34.881 45.56 36.9841C45.6392 37.3413 45.9564 37.619 46.3132 37.619H50V42.4206H46.3132C45.9564 42.4206 45.6392 42.6984 45.56 43.0556C45.1635 45.1587 44.331 47.1429 43.1417 48.9286C42.9435 49.246 42.9832 49.6429 43.221 49.9206L45.7978 52.5L42.4281 55.8333L39.8117 53.2143C39.5342 52.9762 39.1378 52.9365 38.8603 53.1349C37.0763 54.3254 35.0942 55.1587 32.9931 55.5556C32.6363 55.6349 32.3588 55.9524 32.3588 56.3095V60H27.6016V56.3095C27.6016 55.9524 27.3241 55.6349 26.9673 55.5556C24.8662 55.1587 22.884 54.3254 21.1001 53.1349C20.783 52.9365 20.3865 52.9762 20.109 53.2143L17.5322 55.8333L14.1625 52.4603L16.779 49.8413C17.0565 49.5635 17.0565 49.1667 16.8583 48.8889C15.669 47.1032 14.8365 45.119 14.44 43.0159C14.3608 42.6587 14.0436 42.381 13.6868 42.381H10V37.619H13.6868C14.0436 37.619 14.3608 37.3413 14.44 36.9841C14.8365 34.881 15.669 32.8968 16.8583 31.1111C17.0565 30.7937 17.0168 30.3968 16.779 30.1587L14.2022 27.5397L17.5719 24.1667L20.1883 26.7857C20.4658 27.0635 20.8622 27.1032 21.1794 26.8651C22.9633 25.6746 24.9455 24.8413 27.0069 24.4444C27.3637 24.3651 27.6412 24.0476 27.6412 23.6905V20H27.6016Z" stroke="#401691" stroke-width="2" stroke-miterlimit="10"/>
<path d="M30 31C25.0517 31 21 35.0184 21 40C21 44.9815 25.0184 49 30 49C34.9816 49 39 44.9815 39 40C39 35.0184 34.9483 31 30 31Z" stroke="#401691" stroke-width="2" stroke-miterlimit="10"/>
<path d="M12.5 32L4.5 24V7.5" stroke="#B0CB1F" stroke-width="2"/>
<circle cx="4.5" cy="4.5" r="3.5" stroke="#B0CB1F" stroke-width="2"/>
<path d="M48.0001 32L56.3201 24V7.5" stroke="#B0CB1F" stroke-width="2"/>
<path d="M52.64 4.5C52.64 6.39639 54.2503 8 56.32 8C58.3897 8 60 6.39639 60 4.5C60 2.60361 58.3897 1 56.32 1C54.2503 1 52.64 2.60361 52.64 4.5Z" stroke="#B0CB1F" stroke-width="2"/>
<path d="M12.9999 47L4.67993 55L4.67993 61.5" stroke="#B0CB1F" stroke-width="2"/>
<path d="M8.36 64.5C8.36 62.6036 6.74974 61 4.68 61C2.61026 61 1 62.6036 1 64.5C1 66.3964 2.61026 68 4.68 68C6.74974 68 8.36 66.3964 8.36 64.5Z" stroke="#B0CB1F" stroke-width="2"/>
<path d="M46.9998 47L55.3198 55L55.3198 61.5" stroke="#B0CB1F" stroke-width="2"/>
<path d="M51.64 64.5C51.64 62.6036 53.2503 61 55.32 61C57.3897 61 59 62.6036 59 64.5C59 66.3964 57.3897 68 55.32 68C53.2503 68 51.64 66.3964 51.64 64.5Z" stroke="#B0CB1F" stroke-width="2"/>
</svg>
