<svg width="54" height="54" viewBox="0 0 54 54" fill="none" xmlns="http://www.w3.org/2000/svg">
<path d="M43.3385 1H1V43.3385H43.3385V1Z" stroke="#401691" stroke-width="2" stroke-miterlimit="10"/>
<path d="M43.4001 5.92285H48.3232V48.3229H5.98474V43.3383" stroke="#401691" stroke-width="2" stroke-miterlimit="10"/>
<path d="M48.077 10.6616H53.0001V53.0001H10.6616V48.077" stroke="#401691" stroke-width="2" stroke-miterlimit="10"/>
<path d="M4.26123 15.2153C5.92277 13.4307 6.78431 14.2922 8.44585 12.5076C10.1074 10.723 9.18431 9.92298 10.7843 8.13836C12.4459 6.35374 13.3074 7.21528 14.9689 5.43066" stroke="#B0CB1F" stroke-width="2" stroke-miterlimit="10"/>
<path d="M28.4462 39.3999C30.1077 37.6152 30.9692 38.4768 32.6308 36.6922C34.2923 34.9075 33.3692 34.1075 34.9692 32.3229C36.6308 30.5383 37.4923 31.3999 39.1539 29.6152" stroke="#B0CB1F" stroke-width="2" stroke-miterlimit="10"/>
<path d="M4.26123 26.9075C7.76892 23.0921 9.55354 24.8152 13.0612 20.9998C16.5689 17.1844 14.7843 15.5229 18.2305 11.769C21.6766 8.01517 23.5228 9.67671 27.0305 5.86133" stroke="#B0CB1F" stroke-width="2" stroke-miterlimit="10"/>
<path d="M16.1383 38.7229C19.646 34.9075 21.4306 36.6306 24.9383 32.8152C28.446 28.9998 26.6614 27.3383 30.1075 23.5845C33.6152 19.7691 35.3999 21.4921 38.9075 17.6768" stroke="#B0CB1F" stroke-width="2" stroke-miterlimit="10"/>
<path d="M4.6925 37.8613C9.86174 32.2613 11.7079 33.9229 16.8771 28.3229C22.0464 22.7229 20.2617 21.0613 25.431 15.3998C30.6002 9.73825 32.4464 11.4613 37.6156 5.86133" stroke="#B0CB1F" stroke-width="2" stroke-miterlimit="10"/>
</svg>
