<svg width="45" height="56" viewBox="0 0 45 56" fill="none" xmlns="http://www.w3.org/2000/svg">
<path d="M1 54.2853V11.5L9.5 1.604H43.1V54.2853H1Z" stroke="#401691" stroke-width="2" stroke-miterlimit="10"/>
<path d="M13.9012 25.8023C17.1603 25.8023 19.8023 23.1603 19.8023 19.9012C19.8023 16.642 17.1603 14 13.9012 14C10.642 14 8 16.642 8 19.9012C8 23.1603 10.642 25.8023 13.9012 25.8023Z" stroke="#401691" stroke-width="2" stroke-miterlimit="10"/>
<path d="M13.9004 19.9009L21.2127 25.8662" stroke="#401691" stroke-width="2" stroke-miterlimit="10"/>
<path d="M14.5681 45.8023C17.8273 45.8023 20.4693 43.1603 20.4693 39.9012C20.4693 36.642 17.8273 34 14.5681 34C11.309 34 8.66699 36.642 8.66699 39.9012C8.66699 43.1603 11.309 45.8023 14.5681 45.8023Z" stroke="#B0CB1F" stroke-width="2" stroke-miterlimit="10"/>
<path d="M14.5689 39.9012L7 34.3208" stroke="#B0CB1F" stroke-width="2" stroke-miterlimit="10"/>
<path d="M30 14.5V46" stroke="#401691" stroke-width="2"/>
</svg>
