<svg width="59" height="64" viewBox="0 0 59 64" fill="none" xmlns="http://www.w3.org/2000/svg">
<path d="M4.46887 1H53.4624" stroke="#401691" stroke-width="2" stroke-miterlimit="10"/>
<path d="M9.25696 5.38867V1" stroke="#401691" stroke-width="2" stroke-miterlimit="10"/>
<path d="M9.25659 17.198C11.5482 17.198 13.4059 15.3403 13.4059 13.0487C13.4059 10.7571 11.5482 8.89941 9.25659 8.89941C6.965 8.89941 5.1073 10.7571 5.1073 13.0487C5.1073 15.3403 6.965 17.198 9.25659 17.198Z" stroke="#401691" stroke-width="2" stroke-miterlimit="10"/>
<path d="M13.3264 43.6895C14.6829 42.5724 15.5606 40.8169 15.5606 38.9019C15.5606 35.4707 12.7678 32.5981 9.25686 32.5981C5.74592 32.5981 2.95312 35.3909 2.95312 38.9019C2.95312 40.8169 3.83086 42.5724 5.18736 43.6895" stroke="#401691" stroke-width="2" stroke-miterlimit="10"/>
<path d="M9.25683 20.6291C13.4434 20.6291 16.8373 17.2353 16.8373 13.0487C16.8373 8.86214 13.4434 5.46826 9.25683 5.46826C5.07027 5.46826 1.67639 8.86214 1.67639 13.0487C1.67639 17.2353 5.07027 20.6291 9.25683 20.6291Z" stroke="#401691" stroke-width="2" stroke-miterlimit="10"/>
<path d="M6.38416 20.0703V27.172C6.38416 28.6083 7.50127 29.7254 8.93757 29.7254H9.33654C10.7728 29.7254 11.8899 28.6083 11.8899 27.172V20.1501" stroke="#401691" stroke-width="2" stroke-miterlimit="10"/>
<path d="M16.9169 47.7588H1.67627V62.9995H16.9169V47.7588Z" stroke="#401691" stroke-width="2" stroke-miterlimit="10"/>
<path d="M9.33667 29.7256V32.678" stroke="#401691" stroke-width="2" stroke-miterlimit="10"/>
<path d="M29.4446 5.38867V1" stroke="#B0CB1F" stroke-width="2" stroke-miterlimit="10"/>
<path d="M29.4443 17.198C31.7359 17.198 33.5936 15.3403 33.5936 13.0487C33.5936 10.7571 31.7359 8.89941 29.4443 8.89941C27.1527 8.89941 25.295 10.7571 25.295 13.0487C25.295 15.3403 27.1527 17.198 29.4443 17.198Z" stroke="#B0CB1F" stroke-width="2" stroke-miterlimit="10"/>
<path d="M33.5141 43.6895C34.8706 42.5724 35.7483 40.8169 35.7483 38.9019C35.7483 35.4707 32.9555 32.5981 29.4446 32.5981C25.9337 32.5981 23.1409 35.4707 23.1409 38.9019C23.1409 40.8169 24.0186 42.5724 25.3751 43.6895" stroke="#B0CB1F" stroke-width="2" stroke-miterlimit="10"/>
<path d="M29.4446 20.6291C33.6311 20.6291 37.025 17.2353 37.025 13.0487C37.025 8.86214 33.6311 5.46826 29.4446 5.46826C25.258 5.46826 21.8641 8.86214 21.8641 13.0487C21.8641 17.2353 25.258 20.6291 29.4446 20.6291Z" stroke="#B0CB1F" stroke-width="2" stroke-miterlimit="10"/>
<path d="M26.4921 20.0703V27.172C26.4921 28.6083 27.6092 29.7254 29.0455 29.7254H29.4444C30.8807 29.7254 31.9979 28.6083 31.9979 27.172V20.1501" stroke="#B0CB1F" stroke-width="2" stroke-miterlimit="10"/>
<path d="M37.025 47.7588H21.7843V62.9995H37.025V47.7588Z" stroke="#B0CB1F" stroke-width="2" stroke-miterlimit="10"/>
<path d="M29.4448 29.7256V32.678" stroke="#B0CB1F" stroke-width="2" stroke-miterlimit="10"/>
<path d="M49.5525 5.38867V1" stroke="#401691" stroke-width="2" stroke-miterlimit="10"/>
<path d="M49.5524 17.198C51.844 17.198 53.7017 15.3403 53.7017 13.0487C53.7017 10.7571 51.844 8.89941 49.5524 8.89941C47.2608 8.89941 45.4031 10.7571 45.4031 13.0487C45.4031 15.3403 47.2608 17.198 49.5524 17.198Z" stroke="#401691" stroke-width="2" stroke-miterlimit="10"/>
<path d="M53.6223 43.6895C54.9788 42.5724 55.8565 40.8169 55.8565 38.9019C55.8565 35.4707 53.0637 32.5981 49.5528 32.5981C46.0418 32.5981 43.249 35.3909 43.249 38.9019C43.249 40.8169 44.1268 42.5724 45.4833 43.6895" stroke="#401691" stroke-width="2" stroke-miterlimit="10"/>
<path d="M49.5526 20.6291C53.7392 20.6291 57.133 17.2353 57.133 13.0487C57.133 8.86214 53.7392 5.46826 49.5526 5.46826C45.366 5.46826 41.9722 8.86214 41.9722 13.0487C41.9722 17.2353 45.366 20.6291 49.5526 20.6291Z" stroke="#401691" stroke-width="2" stroke-miterlimit="10"/>
<path d="M46.6001 20.0708V27.1725C46.6001 28.6088 47.7172 29.7259 49.1535 29.7259H49.5525C50.9888 29.7259 52.1059 28.6088 52.1059 27.1725V20.1506" stroke="#401691" stroke-width="2" stroke-miterlimit="10"/>
<path d="M57.133 47.7593H41.8923V62.9999H57.133V47.7593Z" stroke="#401691" stroke-width="2" stroke-miterlimit="10"/>
<path d="M49.5527 29.7256V32.678" stroke="#401691" stroke-width="2" stroke-miterlimit="10"/>
</svg>
