<svg width="45" height="45" viewBox="0 0 45 45" fill="none" xmlns="http://www.w3.org/2000/svg">
<path d="M19.9217 1H25.0783V4.96726C25.0783 5.35119 25.3766 5.69246 25.7602 5.77778C28.0188 6.20437 30.1497 7.1002 32.0674 8.37996C32.4083 8.59325 32.8345 8.55059 33.0902 8.29464L35.9029 5.52183L39.5253 9.14782L36.7126 11.9206C36.4143 12.2192 36.3717 12.6458 36.6274 12.9444C37.9058 14.8641 38.8008 16.997 39.227 19.2579C39.3122 19.6419 39.6531 19.9405 40.0367 19.9405H44V25.1022H40.0367C39.6531 25.1022 39.3122 25.4008 39.227 25.7847C38.8008 28.0456 37.9058 30.1786 36.6274 32.0982C36.4143 32.4395 36.4569 32.8661 36.7126 33.1647L39.4827 35.9375L35.8603 39.5208L33.0476 36.7054C32.7493 36.4494 32.3231 36.4067 32.0248 36.62C30.107 37.8998 27.9762 38.7956 25.7175 39.2222C25.334 39.3075 25.0357 39.6488 25.0357 40.0327V44H19.9217V40.0327C19.9217 39.6488 19.6234 39.3075 19.2398 39.2222C16.9812 38.7956 14.8503 37.8998 12.9326 36.62C12.5917 36.4067 12.1655 36.4494 11.8672 36.7054L9.09713 39.5208L5.47473 35.8948L8.28741 33.0794C8.58573 32.7808 8.58573 32.3542 8.37265 32.0556C7.09415 30.1359 6.19921 28.003 5.77304 25.7421C5.68781 25.3581 5.34688 25.0595 4.96333 25.0595H1V19.9405H4.96333C5.34688 19.9405 5.68781 19.6419 5.77304 19.2579C6.19921 16.997 7.09415 14.8641 8.37265 12.9444C8.58573 12.6032 8.54311 12.1766 8.28741 11.9206L5.51734 9.10516L9.13974 5.47917L11.9524 8.29464C12.2507 8.59325 12.6769 8.63591 13.0178 8.37996C14.9356 7.1002 17.0664 6.20437 19.2825 5.77778C19.666 5.69246 19.9643 5.35119 19.9643 4.96726V1H19.9217Z" stroke="#401691" stroke-width="2" stroke-miterlimit="10"/>
<path d="M22 13C16.5018 13 12 17.2417 12 22.5C12 27.7583 16.4649 32 22 32C27.5351 32 32 27.7583 32 22.5C32 17.2417 27.4982 13 22 13Z" stroke="#B0CB1F" stroke-width="2" stroke-miterlimit="10"/>
</svg>
