<svg width="19" height="19" viewBox="0 0 19 19" fill="none" xmlns="http://www.w3.org/2000/svg">
<path d="M9.24771 1.69541C11.7138 1.69541 12.022 1.69541 13.0239 1.77248C15.567 1.84954 16.7229 3.08257 16.8 5.54862C16.8771 6.55046 16.8771 6.78165 16.8771 9.24771C16.8771 11.7138 16.8771 12.022 16.8 12.9468C16.7229 15.4128 15.4899 16.6459 13.0239 16.7229C12.022 16.8 11.7908 16.8 9.24771 16.8C6.78165 16.8 6.47339 16.8 5.54862 16.7229C3.0055 16.6459 1.84954 15.4128 1.77248 12.9468C1.69541 11.945 1.69541 11.7138 1.69541 9.24771C1.69541 6.78165 1.69541 6.47339 1.77248 5.54862C1.84954 3.08257 3.08257 1.84954 5.54862 1.77248C6.47339 1.69541 6.78165 1.69541 9.24771 1.69541ZM9.24771 0C6.70459 0 6.39633 0 5.47156 0.0770642C2.08073 0.231193 0.231193 2.08073 0.0770642 5.47156C0 6.39633 0 6.70459 0 9.24771C0 11.7908 0 12.0991 0.0770642 13.0239C0.231193 16.4147 2.08073 18.2642 5.47156 18.4183C6.39633 18.4954 6.70459 18.4954 9.24771 18.4954C11.7908 18.4954 12.0991 18.4954 13.0239 18.4183C16.4147 18.2642 18.2642 16.4147 18.4183 13.0239C18.4954 12.0991 18.4954 11.7908 18.4954 9.24771C18.4954 6.70459 18.4954 6.39633 18.4183 5.47156C18.2642 2.08073 16.4147 0.231193 13.0239 0.0770642C12.0991 0 11.7908 0 9.24771 0ZM9.24771 4.46973C6.62752 4.46973 4.46973 6.62752 4.46973 9.24771C4.46973 11.8679 6.62752 14.0257 9.24771 14.0257C11.8679 14.0257 14.0257 11.8679 14.0257 9.24771C14.0257 6.62752 11.8679 4.46973 9.24771 4.46973ZM9.24771 12.3303C7.55229 12.3303 6.16514 10.9431 6.16514 9.24771C6.16514 7.55229 7.55229 6.16514 9.24771 6.16514C10.9431 6.16514 12.3303 7.55229 12.3303 9.24771C12.3303 10.9431 10.9431 12.3303 9.24771 12.3303ZM14.1798 3.2367C13.5633 3.2367 13.1009 3.69908 13.1009 4.3156C13.1009 4.93211 13.5633 5.3945 14.1798 5.3945C14.7963 5.3945 15.2587 4.93211 15.2587 4.3156C15.2587 3.69908 14.7963 3.2367 14.1798 3.2367Z" fill="#401691"/>
</svg>
