<svg width="23" height="16" viewBox="0 0 23 16" fill="none" xmlns="http://www.w3.org/2000/svg">
<path fill-rule="evenodd" clip-rule="evenodd" d="M19.6116 0.874758C20.559 1.1296 21.3051 1.88051 21.5583 2.83399L21.5582 2.83408C22.0183 4.56231 22.0183 8.16823 22.0183 8.16823C22.0183 8.16823 22.0183 11.774 21.5582 13.5024C21.305 14.4559 20.5589 15.2067 19.6115 15.4617C17.8945 15.9247 11.0091 15.9247 11.0091 15.9247C11.0091 15.9247 4.12376 15.9247 2.4067 15.4617C1.45931 15.2066 0.713096 14.4559 0.460041 13.5023C0 11.7739 0 8.16814 0 8.16814C0 8.16814 0 4.56222 0.460041 2.83399C0.713096 1.88051 1.45931 1.1296 2.40679 0.874758C4.12385 0.411621 11.0092 0.411621 11.0092 0.411621C11.0092 0.411621 17.8946 0.411621 19.6116 0.874758ZM14.5122 8.16869L8.75743 11.4424V4.89464L14.5122 8.16869Z" fill="#401691"/>
</svg>
