<svg width="834" height="834" viewBox="0 0 834 834" fill="none" xmlns="http://www.w3.org/2000/svg">
<g opacity="0.15">
<mask id="path-1-inside-1" fill="white">
<path fill-rule="evenodd" clip-rule="evenodd" d="M363.33 10.1235C364.397 5.8551 367.598 2.65383 371.866 1.58675C398.543 1.58675 428.422 1.58674 459.367 0.519653C464.703 0.519653 468.971 4.78801 470.038 9.05636L500.984 131.771C522.326 138.174 547.936 149.912 566.076 159.516L678.12 99.7588C682.389 97.6247 687.724 98.6917 690.926 101.893L744.28 155.247C747.481 158.449 748.548 162.717 746.414 166.985L695.194 280.097C703.885 295.741 707.621 309.969 711.591 325.088C712.495 328.532 713.412 332.022 714.401 335.585L825.379 365.464C830.714 366.531 833.915 371.866 833.915 376.135V461.502C832.848 465.77 829.647 470.038 825.379 471.105L714.401 500.984C713.412 504.547 712.495 508.037 711.591 511.481C707.621 526.6 703.885 540.828 695.194 556.472L747.481 669.584C749.615 672.785 748.548 678.12 745.347 681.322L691.993 734.676C688.791 737.877 683.456 738.944 679.188 736.81L566.076 674.919C547.936 684.523 522.326 696.261 500.984 702.663L470.038 825.378C468.971 830.714 463.636 833.915 459.367 833.915H374C368.665 833.915 364.397 829.647 363.33 825.378L332.384 702.663C311.042 696.261 285.432 684.523 267.292 674.919L156.315 735.743C152.046 737.877 146.711 736.81 143.509 733.609L90.1551 680.255C86.9538 677.053 85.8867 672.785 88.0209 668.517L139.241 555.405C130.55 539.761 126.814 525.533 122.844 510.414C121.94 506.97 121.023 503.48 120.034 499.917L9.05639 470.038C3.72095 468.971 0.519684 464.703 0.519684 460.435L0.519684 375.067C0.519684 369.732 4.78804 365.464 9.05639 364.397L118.966 334.518C119.956 330.955 120.873 327.465 121.777 324.021C125.747 308.902 129.483 294.674 138.174 279.03L85.8867 165.918C83.7525 162.717 84.8196 157.382 88.0209 154.18L141.375 100.826C144.577 97.6246 149.912 96.5576 154.18 98.6917L267.292 160.583C285.432 150.979 311.042 139.241 332.384 132.839L363.33 10.1235ZM599.979 426.356C599.979 526.283 518.154 607.29 417.217 607.29C316.28 607.29 234.455 526.283 234.455 426.356C234.455 326.428 316.28 245.421 417.217 245.421C518.154 245.421 599.979 326.428 599.979 426.356Z"/>
</mask>
<path d="M371.866 1.58675V-0.413255H371.62L371.381 -0.353539L371.866 1.58675ZM363.33 10.1235L365.269 10.6125L365.27 10.6085L363.33 10.1235ZM459.367 0.519653V-1.48035H459.333L459.299 -1.47916L459.367 0.519653ZM470.038 9.05636L468.098 9.54143L468.099 9.5454L470.038 9.05636ZM500.984 131.771L499.045 132.261L499.322 133.361L500.409 133.687L500.984 131.771ZM566.076 159.516L565.14 161.283L566.08 161.781L567.017 161.28L566.076 159.516ZM678.12 99.7588L677.226 97.97L677.202 97.9817L677.179 97.9941L678.12 99.7588ZM690.926 101.893L692.34 100.479L692.34 100.479L690.926 101.893ZM744.28 155.247L745.694 153.833L745.694 153.833L744.28 155.247ZM746.414 166.985L744.625 166.091L744.608 166.125L744.592 166.16L746.414 166.985ZM695.194 280.097L693.372 279.272L692.957 280.188L693.446 281.068L695.194 280.097ZM711.591 325.088L713.525 324.58L713.525 324.58L711.591 325.088ZM714.401 335.585L712.474 336.121L712.78 337.22L713.882 337.516L714.401 335.585ZM825.379 365.464L824.859 367.395L824.922 367.412L824.986 367.425L825.379 365.464ZM833.915 461.502L835.856 461.987L835.915 461.748V461.502H833.915ZM825.379 471.105L824.894 469.165L824.876 469.169L824.859 469.174L825.379 471.105ZM714.401 500.984L713.882 499.053L712.78 499.349L712.474 500.449L714.401 500.984ZM711.591 511.481L713.525 511.989L713.525 511.989L711.591 511.481ZM695.194 556.472L693.446 555.501L692.952 556.389L693.378 557.312L695.194 556.472ZM747.481 669.584L745.666 670.423L745.731 670.564L745.817 670.693L747.481 669.584ZM679.188 736.81L678.228 738.565L678.26 738.583L678.293 738.599L679.188 736.81ZM566.076 674.919L567.036 673.165L566.092 672.648L565.14 673.152L566.076 674.919ZM500.984 702.663L500.409 700.748L499.322 701.074L499.045 702.174L500.984 702.663ZM470.038 825.378L468.099 824.889L468.087 824.938L468.077 824.986L470.038 825.378ZM363.33 825.378L365.27 824.893L365.269 824.889L363.33 825.378ZM332.384 702.663L334.323 702.174L334.046 701.074L332.959 700.748L332.384 702.663ZM267.292 674.919L268.227 673.152L267.275 672.647L266.33 673.165L267.292 674.919ZM156.315 735.743L157.209 737.532L157.243 737.515L157.276 737.497L156.315 735.743ZM143.509 733.609L144.924 732.195L144.924 732.195L143.509 733.609ZM90.1551 680.255L88.7408 681.669L88.7408 681.669L90.1551 680.255ZM88.0209 668.517L89.8098 669.411L89.8269 669.377L89.8428 669.342L88.0209 668.517ZM139.241 555.405L141.063 556.23L141.478 555.314L140.989 554.434L139.241 555.405ZM122.844 510.414L120.91 510.922L122.844 510.414ZM120.034 499.917L121.961 499.382L121.655 498.282L120.553 497.986L120.034 499.917ZM9.05639 470.038L9.57634 468.107L9.51297 468.09L9.44862 468.077L9.05639 470.038ZM9.05639 364.397L9.54147 366.337L9.56131 366.332L9.58104 366.327L9.05639 364.397ZM118.966 334.518L119.491 336.448L120.589 336.15L120.893 335.053L118.966 334.518ZM121.777 324.021L119.843 323.513L119.843 323.513L121.777 324.021ZM138.174 279.03L139.922 280.001L140.416 279.113L139.989 278.19L138.174 279.03ZM85.8867 165.918L87.7021 165.079L87.637 164.938L87.5508 164.809L85.8867 165.918ZM88.0209 154.18L86.6067 152.766L88.0209 154.18ZM154.18 98.6917L155.14 96.9372L155.108 96.9194L155.075 96.9029L154.18 98.6917ZM267.292 160.583L266.332 162.337L267.276 162.854L268.227 162.35L267.292 160.583ZM332.384 132.839L332.959 134.754L334.046 134.428L334.323 133.328L332.384 132.839ZM371.381 -0.353539C366.396 0.892691 362.635 4.65346 361.389 9.63838L365.27 10.6085C366.158 7.05674 368.8 4.41497 372.351 3.52703L371.381 -0.353539ZM459.299 -1.47916C428.393 -0.413434 398.547 -0.413255 371.866 -0.413255V3.58675C398.54 3.58675 428.451 3.58692 459.436 2.51847L459.299 -1.47916ZM471.979 8.57129C470.728 3.56699 465.771 -1.48035 459.367 -1.48035V2.51965C463.635 2.51965 467.215 6.00902 468.098 9.54143L471.979 8.57129ZM502.923 131.282L471.978 8.56732L468.099 9.5454L499.045 132.261L502.923 131.282ZM567.012 157.748C548.812 148.113 523.074 136.31 501.559 129.856L500.409 133.687C521.577 140.038 547.059 151.711 565.14 161.283L567.012 157.748ZM677.179 97.9941L565.135 157.751L567.017 161.28L679.062 101.524L677.179 97.9941ZM692.34 100.479C688.562 96.7012 682.305 95.4307 677.226 97.97L679.015 101.548C682.473 99.8186 686.886 100.682 689.511 103.307L692.34 100.479ZM745.694 153.833L692.34 100.479L689.511 103.307L742.866 156.662L745.694 153.833ZM748.203 167.88C750.774 162.737 749.417 157.556 745.694 153.833L742.866 156.662C745.545 159.341 746.322 162.697 744.625 166.091L748.203 167.88ZM697.016 280.922L748.236 167.81L744.592 166.16L693.372 279.272L697.016 280.922ZM713.525 324.58C709.558 309.471 705.77 295.015 696.942 279.125L693.446 281.068C702 296.466 705.684 310.467 709.657 325.596L713.525 324.58ZM716.328 335.05C715.343 331.502 714.43 328.026 713.525 324.58L709.657 325.596C710.56 329.038 711.48 332.541 712.474 336.121L716.328 335.05ZM825.899 363.532L714.921 333.654L713.882 337.516L824.859 367.395L825.899 363.532ZM835.915 376.135C835.915 371.105 832.218 364.792 825.771 363.502L824.986 367.425C829.211 368.27 831.915 372.627 831.915 376.135H835.915ZM835.915 461.502V376.135H831.915V461.502H835.915ZM825.864 473.046C831.082 471.741 834.676 466.704 835.856 461.987L831.975 461.016C831.02 464.836 828.212 468.335 824.894 469.165L825.864 473.046ZM714.921 502.915L825.899 473.037L824.859 469.174L713.882 499.053L714.921 502.915ZM713.525 511.989C714.43 508.543 715.343 505.067 716.328 501.519L712.474 500.449C711.48 504.028 710.56 507.531 709.657 510.973L713.525 511.989ZM696.942 557.444C705.77 541.554 709.558 527.098 713.525 511.989L709.657 510.973C705.684 526.102 702 540.103 693.446 555.501L696.942 557.444ZM749.297 668.744L697.009 555.633L693.378 557.312L745.666 670.423L749.297 668.744ZM746.761 682.736C748.663 680.834 749.911 678.328 750.381 675.821C750.847 673.332 750.58 670.627 749.145 668.474L745.817 670.693C746.516 671.742 746.783 673.305 746.449 675.084C746.119 676.846 745.232 678.608 743.933 679.907L746.761 682.736ZM693.407 736.09L746.761 682.736L743.933 679.907L690.578 733.262L693.407 736.09ZM678.293 738.599C683.372 741.138 689.629 739.868 693.407 736.09L690.578 733.262C687.953 735.887 683.54 736.751 680.082 735.021L678.293 738.599ZM565.116 676.674L678.228 738.565L680.148 735.056L567.036 673.165L565.116 676.674ZM501.559 704.579C523.074 698.124 548.812 686.322 567.012 676.687L565.14 673.152C547.059 682.724 521.577 694.397 500.409 700.748L501.559 704.579ZM471.978 825.868L502.923 703.152L499.045 702.174L468.099 824.889L471.978 825.868ZM459.367 835.915C464.397 835.915 470.71 832.217 471.999 825.771L468.077 824.986C467.232 829.211 462.875 831.915 459.367 831.915V835.915ZM374 835.915H459.367V831.915H374V835.915ZM361.389 825.864C362.64 830.868 367.597 835.915 374 835.915V831.915C369.733 831.915 366.153 828.426 365.27 824.893L361.389 825.864ZM330.445 703.152L361.39 825.868L365.269 824.889L334.323 702.174L330.445 703.152ZM266.356 676.687C284.555 686.322 310.294 698.124 331.809 704.579L332.959 700.748C311.791 694.397 286.309 682.724 268.227 673.152L266.356 676.687ZM157.276 737.497L268.253 676.673L266.33 673.165L155.353 733.989L157.276 737.497ZM142.095 735.023C145.873 738.801 152.13 740.071 157.209 737.532L155.42 733.954C151.962 735.683 147.549 734.82 144.924 732.195L142.095 735.023ZM88.7408 681.669L142.095 735.023L144.924 732.195L91.5693 678.84L88.7408 681.669ZM86.232 667.622C83.6606 672.765 85.0179 677.946 88.7408 681.669L91.5693 678.84C88.8897 676.161 88.1129 672.805 89.8098 669.411L86.232 667.622ZM137.419 554.58L86.199 667.692L89.8428 669.342L141.063 556.23L137.419 554.58ZM120.91 510.922C124.877 526.031 128.665 540.487 137.493 556.377L140.989 554.434C132.435 539.036 128.751 525.035 124.778 509.906L120.91 510.922ZM118.106 500.452C119.092 504 120.005 507.476 120.91 510.922L124.778 509.906C123.875 506.464 122.955 502.961 121.961 499.382L118.106 500.452ZM8.53644 471.97L119.514 501.848L120.553 497.986L9.57634 468.107L8.53644 471.97ZM-1.48032 460.435C-1.48032 465.709 2.44696 470.756 8.66416 471.999L9.44862 468.077C4.99494 467.186 2.51968 463.696 2.51968 460.435H-1.48032ZM-1.48032 375.067L-1.48032 460.435H2.51968L2.51968 375.067H-1.48032ZM8.57131 362.456C3.56703 363.707 -1.48032 368.664 -1.48032 375.067H2.51968C2.51968 370.8 6.00905 367.22 9.54147 366.337L8.57131 362.456ZM118.442 332.588L8.53174 362.467L9.58104 366.327L119.491 336.448L118.442 332.588ZM119.843 323.513C118.938 326.959 118.025 330.435 117.039 333.983L120.893 335.053C121.888 331.474 122.808 327.971 123.711 324.529L119.843 323.513ZM136.426 278.058C127.598 293.948 123.81 308.404 119.843 323.513L123.711 324.529C127.684 309.4 131.368 295.399 139.922 280.001L136.426 278.058ZM84.0713 166.757L136.359 279.869L139.989 278.19L87.7021 165.079L84.0713 166.757ZM86.6067 152.766C84.7045 154.668 83.4573 157.174 82.9873 159.681C82.5205 162.17 82.7876 164.875 84.2226 167.028L87.5508 164.809C86.8516 163.76 86.5852 162.197 86.9188 160.418C87.2491 158.656 88.136 156.894 89.4351 155.595L86.6067 152.766ZM139.961 99.4117L86.6067 152.766L89.4351 155.595L142.79 102.24L139.961 99.4117ZM155.075 96.9029C149.996 94.3636 143.739 95.6341 139.961 99.4117L142.79 102.24C145.414 99.6152 149.828 98.7515 153.286 100.481L155.075 96.9029ZM268.252 158.828L155.14 96.9372L153.22 100.446L266.332 162.337L268.252 158.828ZM331.809 130.923C310.294 137.378 284.555 149.18 266.356 158.815L268.227 162.35C286.309 152.778 311.791 141.105 332.959 134.754L331.809 130.923ZM361.39 9.63441L330.445 132.35L334.323 133.328L365.269 10.6125L361.39 9.63441ZM417.217 609.29C519.239 609.29 601.979 527.407 601.979 426.356H597.979C597.979 525.16 517.068 605.29 417.217 605.29V609.29ZM232.455 426.356C232.455 527.407 315.195 609.29 417.217 609.29V605.29C317.366 605.29 236.455 525.16 236.455 426.356H232.455ZM417.217 243.421C315.195 243.421 232.455 325.305 232.455 426.356H236.455C236.455 327.552 317.366 247.421 417.217 247.421V243.421ZM601.979 426.356C601.979 325.305 519.239 243.421 417.217 243.421V247.421C517.068 247.421 597.979 327.552 597.979 426.356H601.979Z" fill="#8B8B90" mask="url(#path-1-inside-1)"/>
</g>
</svg>
