<svg width="23" height="16" viewBox="0 0 23 16" fill="none" xmlns="http://www.w3.org/2000/svg">
<path fill-rule="evenodd" clip-rule="evenodd" d="M19.6115 1.29162C20.559 1.52758 21.305 2.22287 21.5583 3.10573L21.5582 3.10581C22.0183 4.70602 22.0183 8.04484 22.0183 8.04484C22.0183 8.04484 22.0183 11.3835 21.5582 12.9839C21.3049 13.8667 20.5589 14.5619 19.6114 14.7981C17.8945 15.2267 11.0091 15.2267 11.0091 15.2267C11.0091 15.2267 4.12375 15.2267 2.4067 14.7981C1.45931 14.5618 0.713095 13.8667 0.46004 12.9838C0 11.3834 0 8.04475 0 8.04475C0 8.04475 0 4.70594 0.46004 3.10573C0.713095 2.22287 1.45931 1.52758 2.40679 1.29162C4.12385 0.862793 11.0092 0.862793 11.0092 0.862793C11.0092 0.862793 17.8946 0.862793 19.6115 1.29162ZM14.5122 8.04524L8.75745 11.0764V5.01371L14.5122 8.04524Z" fill="#B0CB1F"/>
</svg>
